<?xml version="1.0" encoding="UTF-8" standalone="no"?>
<!DOCTYPE svg PUBLIC "-//W3C//DTD SVG 1.1//EN"
 "http://www.w3.org/Graphics/SVG/1.1/DTD/svg11.dtd">
<!-- Generated by graphviz version 14.1.5 (0)
 -->
<!-- Title: lucuma::utils::Injector Pages: 1 -->
<svg width="1358pt" height="573pt"
 viewBox="0.00 0.00 1358.00 573.00" xmlns="http://www.w3.org/2000/svg" xmlns:xlink="http://www.w3.org/1999/xlink">
<g id="graph0" class="graph" transform="scale(1 1) rotate(0) translate(4 568.5)">
<title>lucuma::utils::Injector</title>
<polygon fill="white" stroke="none" points="-4,4 -4,-568.5 1354.37,-568.5 1354.37,4 -4,4"/>
<text xml:space="preserve" text-anchor="middle" x="675.19" y="-7.2" font-family="Times,serif" font-size="14.00">lucuma::utils::Injector graph</text>
<!-- basic::Settings -->
<g id="node1" class="node">
<title>basic::Settings</title>
<ellipse fill="none" stroke="black" cx="200" cy="-114.5" rx="64.66" ry="18"/>
<text xml:space="preserve" text-anchor="middle" x="200" y="-109.45" font-family="Times,serif" font-size="14.00">basic::Settings</text>
</g>
<!-- basic::ArgumentParser -->
<g id="node2" class="node">
<title>basic::ArgumentParser</title>
<ellipse fill="none" stroke="black" cx="200" cy="-42.5" rx="95.88" ry="18"/>
<text xml:space="preserve" text-anchor="middle" x="200" y="-37.45" font-family="Times,serif" font-size="14.00">basic::ArgumentParser</text>
</g>
<!-- basic::Settings&#45;&gt;basic::ArgumentParser -->
<g id="edge1" class="edge">
<title>basic::Settings&#45;&gt;basic::ArgumentParser</title>
<path fill="none" stroke="black" d="M200,-96.2C200,-88.91 200,-80.23 200,-72.04"/>
<polygon fill="black" stroke="black" points="203.5,-72.12 200,-62.12 196.5,-72.12 203.5,-72.12"/>
</g>
<!-- backends::Instantiator -->
<g id="node3" class="node">
<title>backends::Instantiator</title>
<ellipse fill="none" stroke="black" cx="320" cy="-186.5" rx="92.3" ry="18"/>
<text xml:space="preserve" text-anchor="middle" x="320" y="-181.45" font-family="Times,serif" font-size="14.00">backends::Instantiator</text>
</g>
<!-- backends::Instantiator&#45;&gt;basic::Settings -->
<g id="edge2" class="edge">
<title>backends::Instantiator&#45;&gt;basic::Settings</title>
<path fill="none" stroke="black" d="M291.56,-168.91C275.22,-159.38 254.52,-147.3 236.94,-137.05"/>
<polygon fill="black" stroke="black" points="238.71,-134.03 228.31,-132.01 235.18,-140.07 238.71,-134.03"/>
</g>
<!-- vulkan::Core -->
<g id="node4" class="node">
<title>vulkan::Core</title>
<ellipse fill="none" stroke="black" cx="999" cy="-186.5" rx="59.03" ry="18"/>
<text xml:space="preserve" text-anchor="middle" x="999" y="-181.45" font-family="Times,serif" font-size="14.00">vulkan::Core</text>
</g>
<!-- vulkan::Core&#45;&gt;basic::Settings -->
<g id="edge5" class="edge">
<title>vulkan::Core&#45;&gt;basic::Settings</title>
<path fill="none" stroke="black" d="M955.21,-174.13C945.64,-171.98 935.52,-169.95 926,-168.5 862.79,-158.89 445.92,-131.36 273.96,-120.24"/>
<polygon fill="black" stroke="black" points="274.22,-116.75 264.02,-119.6 273.77,-123.74 274.22,-116.75"/>
</g>
<!-- vulkan::Context -->
<g id="node5" class="node">
<title>vulkan::Context</title>
<ellipse fill="none" stroke="black" cx="999" cy="-114.5" rx="70.29" ry="18"/>
<text xml:space="preserve" text-anchor="middle" x="999" y="-109.45" font-family="Times,serif" font-size="14.00">vulkan::Context</text>
</g>
<!-- vulkan::Core&#45;&gt;vulkan::Context -->
<g id="edge3" class="edge">
<title>vulkan::Core&#45;&gt;vulkan::Context</title>
<path fill="none" stroke="black" d="M999,-168.2C999,-160.91 999,-152.23 999,-144.04"/>
<polygon fill="black" stroke="black" points="1002.5,-144.12 999,-134.12 995.5,-144.12 1002.5,-144.12"/>
</g>
<!-- vulkan::DebugRequirements -->
<g id="node6" class="node">
<title>vulkan::DebugRequirements</title>
<ellipse fill="none" stroke="black" cx="1233" cy="-114.5" rx="117.37" ry="18"/>
<text xml:space="preserve" text-anchor="middle" x="1233" y="-109.45" font-family="Times,serif" font-size="14.00">vulkan::DebugRequirements</text>
</g>
<!-- vulkan::Core&#45;&gt;vulkan::DebugRequirements -->
<g id="edge4" class="edge">
<title>vulkan::Core&#45;&gt;vulkan::DebugRequirements</title>
<path fill="none" stroke="black" d="M1040.03,-173.23C1076,-162.46 1128.86,-146.65 1170.17,-134.3"/>
<polygon fill="black" stroke="black" points="1170.92,-137.73 1179.49,-131.51 1168.91,-131.02 1170.92,-137.73"/>
</g>
<!-- vulkan::Allocator -->
<g id="node7" class="node">
<title>vulkan::Allocator</title>
<ellipse fill="none" stroke="black" cx="1060" cy="-330.5" rx="75.92" ry="18"/>
<text xml:space="preserve" text-anchor="middle" x="1060" y="-325.45" font-family="Times,serif" font-size="14.00">vulkan::Allocator</text>
</g>
<!-- vulkan::Allocator&#45;&gt;vulkan::Core -->
<g id="edge6" class="edge">
<title>vulkan::Allocator&#45;&gt;vulkan::Core</title>
<path fill="none" stroke="black" d="M1040.59,-312.76C1030.74,-303.16 1019.51,-290.29 1013,-276.5 1004.07,-257.56 1000.65,-234.09 999.42,-216"/>
<polygon fill="black" stroke="black" points="1002.93,-216.07 998.96,-206.24 995.93,-216.4 1002.93,-216.07"/>
</g>
<!-- vulkan::Device -->
<g id="node8" class="node">
<title>vulkan::Device</title>
<ellipse fill="none" stroke="black" cx="247" cy="-258.5" rx="67.22" ry="18"/>
<text xml:space="preserve" text-anchor="middle" x="247" y="-253.45" font-family="Times,serif" font-size="14.00">vulkan::Device</text>
</g>
<!-- vulkan::Allocator&#45;&gt;vulkan::Device -->
<g id="edge9" class="edge">
<title>vulkan::Allocator&#45;&gt;vulkan::Device</title>
<path fill="none" stroke="black" d="M986.35,-325.6C825.99,-316.87 449.52,-295.09 323,-276.5 317.46,-275.69 311.72,-274.69 305.99,-273.59"/>
<polygon fill="black" stroke="black" points="307.02,-270.23 296.53,-271.68 305.64,-277.09 307.02,-270.23"/>
</g>
<!-- vulkan::Device&#45;&gt;basic::Settings -->
<g id="edge8" class="edge">
<title>vulkan::Device&#45;&gt;basic::Settings</title>
<path fill="none" stroke="black" d="M236.41,-240.39C230.54,-230.27 223.54,-217.02 219,-204.5 211.9,-184.95 207.08,-161.98 204.07,-144.27"/>
<polygon fill="black" stroke="black" points="207.54,-143.78 202.51,-134.45 200.62,-144.88 207.54,-143.78"/>
</g>
<!-- vulkan::Device&#45;&gt;vulkan::Core -->
<g id="edge7" class="edge">
<title>vulkan::Device&#45;&gt;vulkan::Core</title>
<path fill="none" stroke="black" d="M295.46,-245.58C304.57,-243.65 314.04,-241.85 323,-240.5 542.63,-207.5 805.69,-194.35 928.88,-189.72"/>
<polygon fill="black" stroke="black" points="928.98,-193.22 938.85,-189.36 928.73,-186.22 928.98,-193.22"/>
</g>
<!-- backends::IBackend -->
<g id="node9" class="node">
<title>backends::IBackend</title>
<ellipse fill="none" stroke="black" cx="380" cy="-474.5" rx="85.64" ry="18"/>
<text xml:space="preserve" text-anchor="middle" x="380" y="-469.45" font-family="Times,serif" font-size="14.00">backends::IBackend</text>
</g>
<!-- backends::IBackend&#45;&gt;basic::Settings -->
<g id="edge35" class="edge">
<title>backends::IBackend&#45;&gt;basic::Settings</title>
<path fill="none" stroke="black" d="M297.33,-469.43C207.31,-460.03 76,-429.51 76,-331.5 76,-331.5 76,-331.5 76,-257.5 76,-204.32 125.95,-161.44 162.45,-137.21"/>
<polygon fill="black" stroke="black" points="164.06,-140.34 170.59,-131.99 160.28,-134.44 164.06,-140.34"/>
</g>
<!-- backends::IBackend&#45;&gt;vulkan::Allocator -->
<g id="edge10" class="edge">
<title>backends::IBackend&#45;&gt;vulkan::Allocator</title>
<path fill="none" stroke="black" d="M441.18,-461.57C452.4,-459.66 464.03,-457.87 475,-456.5 586.64,-442.57 878.93,-469.93 980,-420.5 1007.75,-406.93 1030.25,-379.1 1044.24,-358.16"/>
<polygon fill="black" stroke="black" points="1047.15,-360.1 1049.59,-349.79 1041.25,-356.33 1047.15,-360.1"/>
</g>
<!-- backends::IBackend&#45;&gt;vulkan::Device -->
<g id="edge25" class="edge">
<title>backends::IBackend&#45;&gt;vulkan::Device</title>
<path fill="none" stroke="black" d="M378.52,-456.08C376.45,-437.61 371.66,-407.94 361,-384.5 342.1,-342.95 304.12,-305.77 277.21,-282.98"/>
<polygon fill="black" stroke="black" points="279.65,-280.45 269.71,-276.78 275.19,-285.85 279.65,-280.45"/>
</g>
<!-- vulkan::Compute -->
<g id="node10" class="node">
<title>vulkan::Compute</title>
<ellipse fill="none" stroke="black" cx="277" cy="-402.5" rx="75.41" ry="18"/>
<text xml:space="preserve" text-anchor="middle" x="277" y="-397.45" font-family="Times,serif" font-size="14.00">vulkan::Compute</text>
</g>
<!-- backends::IBackend&#45;&gt;vulkan::Compute -->
<g id="edge24" class="edge">
<title>backends::IBackend&#45;&gt;vulkan::Compute</title>
<path fill="none" stroke="black" d="M355.59,-456.91C342.12,-447.76 325.2,-436.26 310.51,-426.27"/>
<polygon fill="black" stroke="black" points="312.72,-423.55 302.49,-420.82 308.79,-429.34 312.72,-423.55"/>
</g>
<!-- basic::FileReader -->
<g id="node12" class="node">
<title>basic::FileReader</title>
<ellipse fill="none" stroke="black" cx="1097" cy="-258.5" rx="75.41" ry="18"/>
<text xml:space="preserve" text-anchor="middle" x="1097" y="-253.45" font-family="Times,serif" font-size="14.00">basic::FileReader</text>
</g>
<!-- backends::IBackend&#45;&gt;basic::FileReader -->
<g id="edge36" class="edge">
<title>backends::IBackend&#45;&gt;basic::FileReader</title>
<path fill="none" stroke="black" d="M441.17,-461.53C452.39,-459.62 464.02,-457.84 475,-456.5 713.75,-427.27 784.25,-488.4 1015,-420.5 1078.36,-401.86 1111.47,-405.4 1145,-348.5 1153.12,-334.72 1150.76,-327.43 1145,-312.5 1140.96,-302.01 1133.77,-292.31 1126.17,-284.16"/>
<polygon fill="black" stroke="black" points="1128.84,-281.88 1119.28,-277.31 1123.91,-286.85 1128.84,-281.88"/>
</g>
<!-- vulkan::All -->
<g id="node17" class="node">
<title>vulkan::All</title>
<ellipse fill="none" stroke="black" cx="918" cy="-402.5" rx="52.89" ry="18"/>
<text xml:space="preserve" text-anchor="middle" x="918" y="-397.45" font-family="Times,serif" font-size="14.00">vulkan::All</text>
</g>
<!-- backends::IBackend&#45;&gt;vulkan::All -->
<g id="edge34" class="edge">
<title>backends::IBackend&#45;&gt;vulkan::All</title>
<path fill="none" stroke="black" d="M442.51,-461.78C453.33,-459.91 464.48,-458.07 475,-456.5 610.68,-436.26 770.66,-418.66 856.37,-409.73"/>
<polygon fill="black" stroke="black" points="856.62,-413.22 866.21,-408.71 855.9,-406.26 856.62,-413.22"/>
</g>
<!-- vulkan::Compute&#45;&gt;basic::Settings -->
<g id="edge23" class="edge">
<title>vulkan::Compute&#45;&gt;basic::Settings</title>
<path fill="none" stroke="black" d="M204.07,-397.43C166.58,-391.54 123.01,-378.18 95,-348.5 39.18,-289.34 15.94,-235.53 62,-168.5 77.64,-145.74 104.52,-132.74 130.43,-125.33"/>
<polygon fill="black" stroke="black" points="131.17,-128.76 139.97,-122.86 129.41,-121.98 131.17,-128.76"/>
</g>
<!-- vulkan::Compute&#45;&gt;vulkan::Device -->
<g id="edge11" class="edge">
<title>vulkan::Compute&#45;&gt;vulkan::Device</title>
<path fill="none" stroke="black" d="M284.63,-384.29C291.61,-366.01 299.66,-336.48 291,-312.5 287.3,-302.26 280.67,-292.59 273.65,-284.4"/>
<polygon fill="black" stroke="black" points="276.39,-282.21 267.04,-277.23 271.25,-286.95 276.39,-282.21"/>
</g>
<!-- vulkan::ShaderLoader -->
<g id="node11" class="node">
<title>vulkan::ShaderLoader</title>
<ellipse fill="none" stroke="black" cx="611" cy="-330.5" rx="92.81" ry="18"/>
<text xml:space="preserve" text-anchor="middle" x="611" y="-325.45" font-family="Times,serif" font-size="14.00">vulkan::ShaderLoader</text>
</g>
<!-- vulkan::Compute&#45;&gt;vulkan::ShaderLoader -->
<g id="edge18" class="edge">
<title>vulkan::Compute&#45;&gt;vulkan::ShaderLoader</title>
<path fill="none" stroke="black" d="M332.15,-389.94C388.49,-378.13 476.27,-359.74 538.26,-346.74"/>
<polygon fill="black" stroke="black" points="538.98,-350.17 548.05,-344.69 537.54,-343.32 538.98,-350.17"/>
</g>
<!-- vulkan::Performance -->
<g id="node16" class="node">
<title>vulkan::Performance</title>
<ellipse fill="none" stroke="black" cx="193" cy="-330.5" rx="88.71" ry="18"/>
<text xml:space="preserve" text-anchor="middle" x="193" y="-325.45" font-family="Times,serif" font-size="14.00">vulkan::Performance</text>
</g>
<!-- vulkan::Compute&#45;&gt;vulkan::Performance -->
<g id="edge22" class="edge">
<title>vulkan::Compute&#45;&gt;vulkan::Performance</title>
<path fill="none" stroke="black" d="M257.09,-384.91C246.58,-376.15 233.48,-365.23 221.87,-355.56"/>
<polygon fill="black" stroke="black" points="224.43,-353.14 214.51,-349.43 219.95,-358.52 224.43,-353.14"/>
</g>
<!-- vulkan::ShaderLoader&#45;&gt;vulkan::Device -->
<g id="edge12" class="edge">
<title>vulkan::ShaderLoader&#45;&gt;vulkan::Device</title>
<path fill="none" stroke="black" d="M543.36,-317.8C484.91,-307.51 398.22,-291.83 323,-276.5 318.1,-275.5 313.03,-274.44 307.93,-273.34"/>
<polygon fill="black" stroke="black" points="308.81,-269.95 298.3,-271.25 307.32,-276.79 308.81,-269.95"/>
</g>
<!-- vulkan::ShaderLoader&#45;&gt;basic::FileReader -->
<g id="edge13" class="edge">
<title>vulkan::ShaderLoader&#45;&gt;basic::FileReader</title>
<path fill="none" stroke="black" d="M683.76,-319.02C775.02,-305.88 930.65,-283.46 1022.65,-270.21"/>
<polygon fill="black" stroke="black" points="1022.92,-273.71 1032.32,-268.82 1021.92,-266.78 1022.92,-273.71"/>
</g>
<!-- basic::Path&lt;FixedString&lt;8&gt;{&quot;shaders&quot;}, FileChecks{true, false, true}&gt; -->
<g id="node15" class="node">
<title>basic::Path&lt;FixedString&lt;8&gt;{&quot;shaders&quot;}, FileChecks{true, false, true}&gt;</title>
<ellipse fill="none" stroke="black" cx="611" cy="-258.5" rx="279.11" ry="18"/>
<text xml:space="preserve" text-anchor="middle" x="611" y="-253.45" font-family="Times,serif" font-size="14.00">basic::Path&lt;FixedString&lt;8&gt;{&quot;shaders&quot;}, FileChecks{true, false, true}&gt;</text>
</g>
<!-- vulkan::ShaderLoader&#45;&gt;basic::Path&lt;FixedString&lt;8&gt;{&quot;shaders&quot;}, FileChecks{true, false, true}&gt; -->
<g id="edge17" class="edge">
<title>vulkan::ShaderLoader&#45;&gt;basic::Path&lt;FixedString&lt;8&gt;{&quot;shaders&quot;}, FileChecks{true, false, true}&gt;</title>
<path fill="none" stroke="black" d="M611,-312.2C611,-304.91 611,-296.23 611,-288.04"/>
<polygon fill="black" stroke="black" points="614.5,-288.12 611,-278.12 607.5,-288.12 614.5,-288.12"/>
</g>
<!-- basic::PathCommon -->
<g id="node13" class="node">
<title>basic::PathCommon</title>
<ellipse fill="none" stroke="black" cx="564" cy="-186.5" rx="86.67" ry="18"/>
<text xml:space="preserve" text-anchor="middle" x="564" y="-181.45" font-family="Times,serif" font-size="14.00">basic::PathCommon</text>
</g>
<!-- basic::PathCommon&#45;&gt;basic::Settings -->
<g id="edge14" class="edge">
<title>basic::PathCommon&#45;&gt;basic::Settings</title>
<path fill="none" stroke="black" d="M501.84,-173.55C435.33,-160.76 330.38,-140.57 263.4,-127.69"/>
<polygon fill="black" stroke="black" points="264.14,-124.27 253.66,-125.82 262.82,-131.14 264.14,-124.27"/>
</g>
<!-- basic::XdgDirs -->
<g id="node14" class="node">
<title>basic::XdgDirs</title>
<ellipse fill="none" stroke="black" cx="564" cy="-114.5" rx="66.71" ry="18"/>
<text xml:space="preserve" text-anchor="middle" x="564" y="-109.45" font-family="Times,serif" font-size="14.00">basic::XdgDirs</text>
</g>
<!-- basic::PathCommon&#45;&gt;basic::XdgDirs -->
<g id="edge15" class="edge">
<title>basic::PathCommon&#45;&gt;basic::XdgDirs</title>
<path fill="none" stroke="black" d="M564,-168.2C564,-160.91 564,-152.23 564,-144.04"/>
<polygon fill="black" stroke="black" points="567.5,-144.12 564,-134.12 560.5,-144.12 567.5,-144.12"/>
</g>
<!-- basic::Path&lt;FixedString&lt;8&gt;{&quot;shaders&quot;}, FileChecks{true, false, true}&gt;&#45;&gt;basic::PathCommon -->
<g id="edge16" class="edge">
<title>basic::Path&lt;FixedString&lt;8&gt;{&quot;shaders&quot;}, FileChecks{true, false, true}&gt;&#45;&gt;basic::PathCommon</title>
<path fill="none" stroke="black" d="M599.38,-240.2C594.09,-232.31 587.7,-222.8 581.82,-214.05"/>
<polygon fill="black" stroke="black" points="584.81,-212.21 576.33,-205.86 579,-216.11 584.81,-212.21"/>
</g>
<!-- vulkan::Performance&#45;&gt;basic::Settings -->
<g id="edge21" class="edge">
<title>vulkan::Performance&#45;&gt;basic::Settings</title>
<path fill="none" stroke="black" d="M178.6,-312.6C171.17,-302.76 162.88,-289.72 159,-276.5 145.29,-229.75 167.52,-174.6 184.23,-142.49"/>
<polygon fill="black" stroke="black" points="187.22,-144.32 188.91,-133.86 181.07,-140.99 187.22,-144.32"/>
</g>
<!-- vulkan::Performance&#45;&gt;vulkan::Core -->
<g id="edge19" class="edge">
<title>vulkan::Performance&#45;&gt;vulkan::Core</title>
<path fill="none" stroke="black" d="M180.73,-312.45C168.08,-292.62 152.6,-260.12 171,-240.5 177.48,-233.6 732.13,-202.27 929.91,-191.3"/>
<polygon fill="black" stroke="black" points="930,-194.8 939.79,-190.76 929.61,-187.81 930,-194.8"/>
</g>
<!-- vulkan::Performance&#45;&gt;vulkan::Device -->
<g id="edge20" class="edge">
<title>vulkan::Performance&#45;&gt;vulkan::Device</title>
<path fill="none" stroke="black" d="M206.07,-312.55C212.37,-304.39 220.07,-294.41 227.08,-285.32"/>
<polygon fill="black" stroke="black" points="229.79,-287.54 233.12,-277.49 224.24,-283.27 229.79,-287.54"/>
</g>
<!-- vulkan::All&#45;&gt;basic::Settings -->
<g id="edge33" class="edge">
<title>vulkan::All&#45;&gt;basic::Settings</title>
<path fill="none" stroke="black" d="M921.54,-384.11C927.05,-351.77 933.72,-281.91 899,-240.5 827.72,-155.5 768.64,-190.94 660,-168.5 525.42,-140.71 365.47,-126.4 274.03,-119.96"/>
<polygon fill="black" stroke="black" points="274.41,-116.48 264.2,-119.28 273.93,-123.46 274.41,-116.48"/>
</g>
<!-- vulkan::All&#45;&gt;vulkan::Core -->
<g id="edge26" class="edge">
<title>vulkan::All&#45;&gt;vulkan::Core</title>
<path fill="none" stroke="black" d="M924.49,-384.35C938.44,-347.49 971.4,-260.42 988.42,-215.46"/>
<polygon fill="black" stroke="black" points="991.67,-216.74 991.94,-206.15 985.13,-214.26 991.67,-216.74"/>
</g>
<!-- vulkan::All&#45;&gt;vulkan::Allocator -->
<g id="edge31" class="edge">
<title>vulkan::All&#45;&gt;vulkan::Allocator</title>
<path fill="none" stroke="black" d="M947.08,-387.17C967.48,-377.11 995.09,-363.5 1017.89,-352.26"/>
<polygon fill="black" stroke="black" points="1019.21,-355.51 1026.64,-347.95 1016.12,-349.23 1019.21,-355.51"/>
</g>
<!-- vulkan::All&#45;&gt;vulkan::Device -->
<g id="edge30" class="edge">
<title>vulkan::All&#45;&gt;vulkan::Device</title>
<path fill="none" stroke="black" d="M866.41,-398.12C788.27,-392.25 635.59,-377.89 509,-348.5 467.92,-338.96 359.93,-300.64 296.15,-277.5"/>
<polygon fill="black" stroke="black" points="297.56,-274.29 286.96,-274.16 295.17,-280.87 297.56,-274.29"/>
</g>
<!-- vulkan::All&#45;&gt;vulkan::ShaderLoader -->
<g id="edge32" class="edge">
<title>vulkan::All&#45;&gt;vulkan::ShaderLoader</title>
<path fill="none" stroke="black" d="M874.99,-391.69C824.5,-380.18 740.08,-360.93 680.32,-347.31"/>
<polygon fill="black" stroke="black" points="681.46,-343.98 670.93,-345.17 679.91,-350.8 681.46,-343.98"/>
</g>
<!-- vulkan::Debug -->
<g id="node18" class="node">
<title>vulkan::Debug</title>
<ellipse fill="none" stroke="black" cx="1256" cy="-258.5" rx="65.68" ry="18"/>
<text xml:space="preserve" text-anchor="middle" x="1256" y="-253.45" font-family="Times,serif" font-size="14.00">vulkan::Debug</text>
</g>
<!-- vulkan::All&#45;&gt;vulkan::Debug -->
<g id="edge29" class="edge">
<title>vulkan::All&#45;&gt;vulkan::Debug</title>
<path fill="none" stroke="black" d="M967.95,-396.32C1015.43,-389.92 1087.86,-376.29 1145,-348.5 1178.39,-332.27 1210.83,-304.42 1231.93,-284.19"/>
<polygon fill="black" stroke="black" points="1234.2,-286.87 1238.9,-277.37 1229.3,-281.86 1234.2,-286.87"/>
</g>
<!-- vulkan::Debug&#45;&gt;vulkan::Core -->
<g id="edge27" class="edge">
<title>vulkan::Debug&#45;&gt;vulkan::Core</title>
<path fill="none" stroke="black" d="M1210.65,-245.15C1166.49,-233.12 1099.37,-214.84 1052.6,-202.1"/>
<polygon fill="black" stroke="black" points="1053.79,-198.8 1043.23,-199.55 1051.96,-205.55 1053.79,-198.8"/>
</g>
<!-- vulkan::Debug&#45;&gt;vulkan::DebugRequirements -->
<g id="edge28" class="edge">
<title>vulkan::Debug&#45;&gt;vulkan::DebugRequirements</title>
<path fill="none" stroke="black" d="M1253.18,-240.09C1249.3,-216.11 1242.26,-172.64 1237.6,-143.92"/>
<polygon fill="black" stroke="black" points="1241.07,-143.42 1236.01,-134.1 1234.16,-144.54 1241.07,-143.42"/>
</g>
<!-- frontends::Headless -->
<g id="node19" class="node">
<title>frontends::Headless</title>
<ellipse fill="none" stroke="black" cx="380" cy="-546.5" rx="84.11" ry="18"/>
<text xml:space="preserve" text-anchor="middle" x="380" y="-541.45" font-family="Times,serif" font-size="14.00">frontends::Headless</text>
</g>
<!-- frontends::Headless&#45;&gt;basic::Settings -->
<g id="edge38" class="edge">
<title>frontends::Headless&#45;&gt;basic::Settings</title>
<path fill="none" stroke="black" d="M314.68,-534.93C206.03,-515.49 0,-469.88 0,-403.5 0,-403.5 0,-403.5 0,-257.5 0,-214.13 7.8,-197.55 40,-168.5 65.06,-145.89 100.01,-132.89 130.86,-125.44"/>
<polygon fill="black" stroke="black" points="131.55,-128.87 140.54,-123.27 130.01,-122.04 131.55,-128.87"/>
</g>
<!-- frontends::Headless&#45;&gt;backends::IBackend -->
<g id="edge37" class="edge">
<title>frontends::Headless&#45;&gt;backends::IBackend</title>
<path fill="none" stroke="black" d="M380,-528.2C380,-520.91 380,-512.23 380,-504.04"/>
<polygon fill="black" stroke="black" points="383.5,-504.12 380,-494.12 376.5,-504.12 383.5,-504.12"/>
</g>
<!-- basic::Json -->
<g id="node20" class="node">
<title>basic::Json</title>
<ellipse fill="none" stroke="black" cx="535" cy="-474.5" rx="51.35" ry="18"/>
<text xml:space="preserve" text-anchor="middle" x="535" y="-469.45" font-family="Times,serif" font-size="14.00">basic::Json</text>
</g>
<!-- frontends::Headless&#45;&gt;basic::Json -->
<g id="edge39" class="edge">
<title>frontends::Headless&#45;&gt;basic::Json</title>
<path fill="none" stroke="black" d="M414.79,-529.79C438.19,-519.22 469.15,-505.24 493.79,-494.11"/>
<polygon fill="black" stroke="black" points="495.21,-497.31 502.89,-490 492.33,-490.93 495.21,-497.31"/>
</g>
</g>
</svg>
